<?xml version="1.0" encoding="utf-8"?>
<!-- Generator: Adobe Illustrator 21.0.0, SVG Export Plug-In . SVG Version: 6.00 Build 0)  -->
<svg version="1.1" id="Livello_1" xmlns="http://www.w3.org/2000/svg" xmlns:xlink="http://www.w3.org/1999/xlink" x="0px" y="0px"
	 viewBox="0 0 348 348" style="enable-background:new 0 0 348 348;" xml:space="preserve">
<style type="text/css">
	.st0{clip-path:url(#SVGID_2_);}
	.st1{fill-opacity:0;}
	.st2{fill:#FFFFFF;}
	.st3{fill:none;stroke:#000000;stroke-width:2;stroke-linejoin:round;stroke-miterlimit:10;}
	.st4{fill:#FFFFFF;stroke:#000000;stroke-miterlimit:10;}
	.st5{font-family:'MyriadPro-Regular';}
	.st6{font-size:24px;}
</style>
<g>
	<defs>
		<rect id="SVGID_1_" y="0" width="348" height="348"/>
	</defs>
	<clipPath id="SVGID_2_">
		<use xlink:href="#SVGID_1_"  style="overflow:visible;"/>
	</clipPath>
	<g class="st0">
		<path class="st1" d="M0,0h348v348H0V0z"/>
		<path class="st2" d="M-6,0h348v348H-6V0z"/>
		<path class="st1" d="M5.1,5.8H342v337.7H5.1L5.1,5.8z"/>
		<path class="st3" d="M5.1,5.8H342v337.7H5.1L5.1,5.8z"/>
		<path class="st2" d="M282.7,40.6L282.7,40.6c0-8.4,7-15.2,15.6-15.2l0,0c4.1,0,8.1,1.6,11,4.4c2.9,2.8,4.6,6.7,4.6,10.7l0,0
			c0,8.4-7,15.2-15.6,15.2l0,0C289.7,55.7,282.7,48.9,282.7,40.6z"/>
		<path class="st3" d="M282.7,40.6L282.7,40.6c0-8.4,7-15.2,15.6-15.2l0,0c4.1,0,8.1,1.6,11,4.4c2.9,2.8,4.6,6.7,4.6,10.7l0,0
			c0,8.4-7,15.2-15.6,15.2l0,0C289.7,55.7,282.7,48.9,282.7,40.6z"/>
	</g>
</g>
<rect x="58" y="98.6" class="st4" width="36" height="36"/>
<rect x="98" y="178.6" class="st4" width="36" height="36"/>
<rect x="98" y="138.6" class="st4" width="36" height="36"/>
<rect x="138" y="178.6" class="st4" width="36" height="36"/>
<rect x="138" y="138.6" class="st4" width="36" height="36"/>
<rect x="58" y="178.6" class="st4" width="36" height="36"/>
<rect x="58" y="138.6" class="st4" width="36" height="36"/>
<rect x="138" y="98.6" class="st4" width="36" height="36"/>
<rect x="98" y="98.6" class="st4" width="36" height="36"/>
<text transform="matrix(1 0 0 1 69 88.8961)" class="st5 st6">A</text>
<text transform="matrix(1 0 0 1 150.2164 88.8958)" class="st5 st6">C</text>
<text transform="matrix(1 0 0 1 109.4503 88.8959)" class="st5 st6">B</text>
<text transform="matrix(1 0 0 1 39.4878 122.7968)" class="st5 st6">1</text>
<text transform="matrix(1 0 0 1 39.4878 202.6783)" class="st5 st6">3</text>
<text transform="matrix(1 0 0 1 39.4878 163.6966)" class="st5 st6">2</text>
</svg>
